<svg width="1920" height="1080" viewBox="0 0 1920 1080" xmlns="http://www.w3.org/2000/svg">
  <defs>
    <linearGradient id="skyGradient" x1="0%" y1="0%" x2="0%" y2="100%">
      <stop offset="0%" style="stop-color:#1e3a8a;stop-opacity:1" />
      <stop offset="30%" style="stop-color:#3730a3;stop-opacity:1" />
      <stop offset="70%" style="stop-color:#7c3aed;stop-opacity:1" />
      <stop offset="100%" style="stop-color:#be185d;stop-opacity:1" />
    </linearGradient>
    <linearGradient id="waterGradient" x1="0%" y1="0%" x2="0%" y2="100%">
      <stop offset="0%" style="stop-color:#0ea5e9;stop-opacity:0.8" />
      <stop offset="50%" style="stop-color:#0284c7;stop-opacity:0.9" />
      <stop offset="100%" style="stop-color:#0c4a6e;stop-opacity:1" />
    </linearGradient>
    <linearGradient id="buildingGradient" x1="0%" y1="0%" x2="0%" y2="100%">
      <stop offset="0%" style="stop-color:#374151;stop-opacity:1" />
      <stop offset="50%" style="stop-color:#1f2937;stop-opacity:1" />
      <stop offset="100%" style="stop-color:#111827;stop-opacity:1" />
    </linearGradient>
  </defs>
  
  <!-- Sky Background -->
  <rect width="1920" height="650" fill="url(#skyGradient)"/>
  
  <!-- Water/Marina -->
  <ellipse cx="960" cy="1000" rx="1200" ry="300" fill="url(#waterGradient)"/>
  
  <!-- Distant Mountains -->
  <polygon points="0,500 300,350 600,400 900,320 1200,380 1500,300 1920,350 1920,650 0,650" fill="#4b5563" opacity="0.6"/>
  
  <!-- Luxury Buildings/Skyline -->
  <rect x="200" y="200" width="80" height="450" fill="url(#buildingGradient)"/>
  <rect x="300" y="150" width="60" height="500" fill="url(#buildingGradient)"/>
  <rect x="380" y="180" width="90" height="470" fill="url(#buildingGradient)"/>
  <rect x="500" y="120" width="70" height="530" fill="url(#buildingGradient)"/>
  <rect x="600" y="160" width="85" height="490" fill="url(#buildingGradient)"/>
  <rect x="720" y="100" width="95" height="550" fill="url(#buildingGradient)"/>
  <rect x="850" y="140" width="75" height="510" fill="url(#buildingGradient)"/>
  <rect x="950" y="90" width="100" height="560" fill="url(#buildingGradient)"/>
  <rect x="1080" y="130" width="80" height="520" fill="url(#buildingGradient)"/>
  <rect x="1200" y="110" width="90" height="540" fill="url(#buildingGradient)"/>
  <rect x="1320" y="170" width="70" height="480" fill="url(#buildingGradient)"/>
  <rect x="1420" y="140" width="85" height="510" fill="url(#buildingGradient)"/>
  <rect x="1540" y="180" width="75" height="470" fill="url(#buildingGradient)"/>
  <rect x="1640" y="160" width="80" height="490" fill="url(#buildingGradient)"/>
  
  <!-- Building Windows -->
  <g opacity="0.8">
    <!-- Building 1 -->
    <rect x="210" y="220" width="8" height="12" fill="#B87333" opacity="0.7"/>
    <rect x="230" y="240" width="8" height="12" fill="#B87333" opacity="0.7"/>
    <rect x="250" y="260" width="8" height="12" fill="#B87333" opacity="0.7"/>
    <rect x="210" y="300" width="8" height="12" fill="#B87333" opacity="0.9"/>
    <rect x="230" y="320" width="8" height="12" fill="#B87333" opacity="0.8"/>
    
    <!-- Building 2 -->
    <rect x="315" y="180" width="6" height="10" fill="#B87333" opacity="0.8"/>
    <rect x="330" y="200" width="6" height="10" fill="#B87333" opacity="0.9"/>
    <rect x="345" y="220" width="6" height="10" fill="#B87333" opacity="0.7"/>
    
    <!-- Central Tower -->
    <rect x="965" y="130" width="12" height="18" fill="#B87333" opacity="1"/>
    <rect x="985" y="150" width="12" height="18" fill="#B87333" opacity="0.9"/>
    <rect x="1005" y="170" width="12" height="18" fill="#B87333" opacity="0.8"/>
    <rect x="1025" y="190" width="12" height="18" fill="#B87333" opacity="0.9"/>
  </g>
  
  <!-- Marina/Dock Elements -->
  <rect x="400" y="750" width="400" height="8" fill="#8b5cf6" opacity="0.6"/>
  <rect x="800" y="770" width="320" height="6" fill="#8b5cf6" opacity="0.6"/>
  <rect x="1200" y="780" width="280" height="8" fill="#8b5cf6" opacity="0.6"/>
  
  <!-- Luxury Yacht -->
  <ellipse cx="600" cy="800" rx="40" ry="12" fill="#f8fafc"/>
  <rect x="580" y="795" width="40" height="6" fill="#e2e8f0"/>
  <circle cx="590" cy="790" r="3" fill="#B87333"/>
  
  <!-- Reflections in Water -->
  <g opacity="0.3">
    <rect x="200" y="850" width="80" height="150" fill="url(#buildingGradient)" transform="scale(1,-0.5) translate(0,-1700)"/>
    <rect x="950" y="850" width="100" height="200" fill="url(#buildingGradient)" transform="scale(1,-0.4) translate(0,-2000)"/>
  </g>
  
  <!-- Subtle Clouds -->
  <ellipse cx="300" cy="150" rx="80" ry="25" fill="#ffffff" opacity="0.1"/>
  <ellipse cx="700" cy="120" rx="120" ry="35" fill="#ffffff" opacity="0.08"/>
  <ellipse cx="1400" cy="140" rx="90" ry="28" fill="#ffffff" opacity="0.1"/>
  
  <!-- Foreground Overlay -->
  <rect width="1920" height="1080" fill="url(#skyGradient)" opacity="0.1"/>
</svg>