<svg xmlns="http://www.w3.org/2000/svg" viewBox="0 0 1920 1080" width="1920" height="1080">
  <defs>
    <linearGradient id="skyGradient" x1="0%" y1="0%" x2="0%" y2="100%">
      <stop offset="0%" style="stop-color:#87CEEB;stop-opacity:1" />
      <stop offset="100%" style="stop-color:#4682B4;stop-opacity:1" />
    </linearGradient>
    <linearGradient id="buildingGradient" x1="0%" y1="0%" x2="0%" y2="100%">
      <stop offset="0%" style="stop-color:#E6E6FA;stop-opacity:1" />
      <stop offset="100%" style="stop-color:#B87333;stop-opacity:1" />
    </linearGradient>
    <linearGradient id="waterGradient" x1="0%" y1="0%" x2="0%" y2="100%">
      <stop offset="0%" style="stop-color:#40E0D0;stop-opacity:0.8" />
      <stop offset="100%" style="stop-color:#008B8B;stop-opacity:1" />
    </linearGradient>
  </defs>
  
  <!-- Sky Background -->
  <rect width="1920" height="1080" fill="url(#skyGradient)"/>
  
  <!-- Distant Mountains -->
  <polygon points="0,600 400,400 800,500 1200,350 1600,450 1920,380 1920,1080 0,1080" fill="#708090" opacity="0.3"/>
  
  <!-- Water/Marina -->
  <rect x="0" y="700" width="1920" height="380" fill="url(#waterGradient)"/>
  
  <!-- Main Luxury Building -->
  <rect x="600" y="200" width="300" height="500" fill="url(#buildingGradient)" rx="10"/>
  
  <!-- Building Windows -->
  <g fill="#4169E1" opacity="0.7">
    <rect x="620" y="220" width="30" height="40" rx="3"/>
    <rect x="660" y="220" width="30" height="40" rx="3"/>
    <rect x="700" y="220" width="30" height="40" rx="3"/>
    <rect x="740" y="220" width="30" height="40" rx="3"/>
    <rect x="780" y="220" width="30" height="40" rx="3"/>
    
    <rect x="620" y="280" width="30" height="40" rx="3"/>
    <rect x="660" y="280" width="30" height="40" rx="3"/>
    <rect x="700" y="280" width="30" height="40" rx="3"/>
    <rect x="740" y="280" width="30" height="40" rx="3"/>
    <rect x="780" y="280" width="30" height="40" rx="3"/>
    
    <rect x="620" y="340" width="30" height="40" rx="3"/>
    <rect x="660" y="340" width="30" height="40" rx="3"/>
    <rect x="700" y="340" width="30" height="40" rx="3"/>
    <rect x="740" y="340" width="30" height="40" rx="3"/>
    <rect x="780" y="340" width="30" height="40" rx="3"/>
    
    <rect x="620" y="400" width="30" height="40" rx="3"/>
    <rect x="660" y="400" width="30" height="40" rx="3"/>
    <rect x="700" y="400" width="30" height="40" rx="3"/>
    <rect x="740" y="400" width="30" height="40" rx="3"/>
    <rect x="780" y="400" width="30" height="40" rx="3"/>
    
    <rect x="620" y="460" width="30" height="40" rx="3"/>
    <rect x="660" y="460" width="30" height="40" rx="3"/>
    <rect x="700" y="460" width="30" height="40" rx="3"/>
    <rect x="740" y="460" width="30" height="40" rx="3"/>
    <rect x="780" y="460" width="30" height="40" rx="3"/>
  </g>
  
  <!-- Additional Buildings -->
  <rect x="300" y="350" width="200" height="350" fill="#D2B48C" opacity="0.8" rx="8"/>
  <rect x="1000" y="300" width="250" height="400" fill="#DEB887" opacity="0.8" rx="8"/>
  <rect x="1350" y="400" width="180" height="300" fill="#F5DEB3" opacity="0.8" rx="8"/>
  
  <!-- Palm Trees -->
  <g transform="translate(150,600)">
    <rect x="15" y="0" width="10" height="100" fill="#8B4513"/>
    <ellipse cx="20" cy="-10" rx="25" ry="15" fill="#228B22"/>
    <ellipse cx="20" cy="-20" rx="20" ry="12" fill="#32CD32"/>
  </g>
  
  <g transform="translate(1400,650)">
    <rect x="15" y="0" width="10" height="80" fill="#8B4513"/>
    <ellipse cx="20" cy="-8" rx="20" ry="12" fill="#228B22"/>
    <ellipse cx="20" cy="-16" rx="15" ry="10" fill="#32CD32"/>
  </g>
  
  <!-- Boats in Marina -->
  <g fill="#FFFFFF" opacity="0.9">
    <polygon points="100,750 150,750 160,770 90,770" />
    <rect x="110" y="740" width="3" height="20" fill="#8B4513"/>
    
    <polygon points="1300,760 1350,760 1360,780 1290,780" />
    <rect x="1310" y="750" width="3" height="20" fill="#8B4513"/>
  </g>
  
  <!-- Clouds -->
  <g fill="#FFFFFF" opacity="0.6">
    <ellipse cx="300" cy="150" rx="50" ry="25"/>
    <ellipse cx="320" cy="140" rx="40" ry="20"/>
    <ellipse cx="340" cy="150" rx="35" ry="18"/>
    
    <ellipse cx="1200" cy="120" rx="60" ry="30"/>
    <ellipse cx="1230" cy="110" rx="45" ry="25"/>
    <ellipse cx="1260" cy="120" rx="40" ry="22"/>
  </g>
  
  <!-- Water Reflections -->
  <g opacity="0.3">
    <rect x="600" y="720" width="300" height="20" fill="url(#buildingGradient)" transform="scale(1,-0.5) translate(0,-1480)"/>
    <rect x="300" y="740" width="200" height="15" fill="#D2B48C" transform="scale(1,-0.4) translate(0,-1860)"/>
    <rect x="1000" y="730" width="250" height="18" fill="#DEB887" transform="scale(1,-0.45) translate(0,-1640)"/>
  </g>
  
  <!-- Sunset/Golden Hour Overlay -->
  <rect width="1920" height="1080" fill="url(#skyGradient)" opacity="0.2"/>
</svg>